<?xml version="1.0" encoding="UTF-8"?>
<svg width="30px" height="25px" viewBox="0 0 40 49" version="1.1" xmlns="http://www.w3.org/2000/svg" xmlns:xlink="http://www.w3.org/1999/xlink">
    <title>copy</title>
    <defs></defs>
    <g id="Page-1" stroke="none" stroke-width="1" fill="none" fill-rule="evenodd">
        <g id="copy" fill="#4A4A4A" fill-rule="nonzero">
            <path d="M30.413615,10.1423474 L17.0887324,10.1423474 C16.0513615,10.1423474 15.2105164,10.9831925 15.2105164,12.0205634 C15.2105164,13.0579343 16.0513615,13.8987793 17.0887324,13.8987793 L30.413615,13.8987793 C31.4509859,13.8987793 32.291831,13.0579343 32.291831,12.0205634 C32.291831,10.9831925 31.450892,10.1423474 30.413615,10.1423474 Z" id="Shape"></path>
            <path d="M30.413615,17.6551174 L17.0887324,17.6551174 C16.0513615,17.6551174 15.2105164,18.4959624 15.2105164,19.5333333 C15.2105164,20.5707042 16.0513615,21.4115493 17.0887324,21.4115493 L30.413615,21.4115493 C31.450892,21.4115493 32.291831,20.5707042 32.291831,19.5333333 C32.291831,18.4959624 31.4509859,17.6551174 30.413615,17.6551174 Z" id="Shape"></path>
            <path d="M22.817277,25.1679812 L17.0887324,25.1679812 C16.0513615,25.1679812 15.2105164,26.0088263 15.2105164,27.0461972 C15.2105164,28.0835681 16.0513615,28.9244131 17.0887324,28.9244131 L22.817277,28.9244131 C23.8546479,28.9244131 24.695493,28.0835681 24.695493,27.0461972 C24.695493,26.0088263 23.8546479,25.1679812 22.817277,25.1679812 Z" id="Shape"></path>
            <path d="M38.0307981,25.5435681 C39.068169,25.5435681 39.9090141,24.702723 39.9090141,23.6653521 L39.9090141,7.51286385 C39.9090141,3.37023474 36.5386854,0 32.3961502,0 L15.1166197,0 C10.976338,0 7.60760563,3.36647887 7.60375587,7.50591549 C3.46122066,7.50591549 0.0908920188,10.8761502 0.0908920188,15.0187793 L0.0908920188,40.5623474 C0.0908920188,44.7048826 3.46112676,48.0752113 7.60375587,48.0752113 L25.8223474,48.0752113 C29.9648826,48.0752113 33.3352113,44.7049765 33.3352113,40.5623474 L33.3352113,40.5052582 C37.0360563,40.0415962 39.9089202,36.8750235 39.9089202,33.050892 C39.9089202,32.0135211 39.0680751,31.1726761 38.0307042,31.1726761 C36.9933333,31.1726761 36.1524883,32.0135211 36.1524883,33.050892 C36.1524883,35.1216901 34.4677934,36.8068545 32.3969953,36.8073239 L15.1174648,36.8115493 L15.1166197,36.8115493 C14.1133333,36.8115493 13.1701408,36.420939 12.4607512,35.7115493 C11.7510798,35.0020657 11.3601878,34.0585915 11.3601878,33.0551174 L11.3601878,7.51286385 C11.3601878,5.44159624 13.0453521,3.75643192 15.1166197,3.75643192 L32.3962441,3.75643192 C34.4675117,3.75643192 36.1526761,5.44159624 36.1526761,7.51286385 L36.1526761,23.665446 C36.1525822,24.702723 36.9934272,25.5435681 38.0307981,25.5435681 Z M15.1166197,40.5677934 L15.1184977,40.5677934 L29.5787793,40.5642254 C29.5776526,42.634554 27.8929577,44.3185915 25.8223474,44.3185915 L7.60384977,44.3185915 C5.53258216,44.3185915 3.84741784,42.6334272 3.84741784,40.5621596 L3.84741784,15.0185915 C3.84741784,12.9473239 5.53258216,11.2621596 7.60384977,11.2621596 L7.60384977,33.0550235 C7.60384977,35.0620657 8.38553991,36.9490141 9.80488263,38.3679812 C11.2239437,39.7867606 13.1100469,40.5677934 15.1166197,40.5677934 Z" id="Shape"></path>
        </g>
    </g>
</svg>